<svg xmlns="http://www.w3.org/2000/svg" viewBox="0 0 100 100" width="100" height="100">
  <!-- 尾巴 -->
  <path d="M76 52 Q90 42 95 36 Q92 48 84 58 Q80 62 76 60 Z" fill="#6E7F92"/>
  <path d="M76 54 Q88 46 93 40 Q90 50 84 58 Q80 60 76 58 Z" fill="#5E6F82"/>

  <!-- 身体 -->
  <ellipse cx="52" cy="58" rx="22" ry="26" fill="#7A8B9E"/>
  <!-- 肚子亮面 -->
  <ellipse cx="48" cy="62" rx="12" ry="18" fill="#8FA0B3" opacity="0.4"/>

  <!-- 后腿（远） -->
  <ellipse cx="58" cy="76" rx="10" ry="8" fill="#5E6F82"/>
  <rect x="53" y="82" width="8" height="10" rx="3" fill="#4E5F72"/>
  <ellipse cx="57" cy="93" rx="6" ry="2.5" fill="#4A5A6D"/>

  <!-- 后腿（近） -->
  <ellipse cx="46" cy="76" rx="10" ry="8" fill="#6B7B8E"/>
  <rect x="41" y="82" width="8" height="10" rx="3" fill="#5A6A7D"/>
  <ellipse cx="45" cy="93" rx="6" ry="2.5" fill="#4E5F72"/>

  <!-- 头部 -->
  <ellipse cx="28" cy="36" rx="17" ry="15" fill="#7A8B9E"/>

  <!-- 嘴巴上颚 -->
  <path d="M14 34 L4 42 L16 40 Z" fill="#6B7B8E"/>
  <!-- 嘴巴下颚 -->
  <path d="M14 41 L6 50 L18 44 Z" fill="#5A6A7D"/>
  <!-- 舌头 -->
  <path d="M12 44 Q8 46 6 48" fill="none" stroke="#B07D7D" stroke-width="1.5" stroke-linecap="round"/>

  <!-- 牙齿 -->
  <path d="M11 40 L9 43 L13 41 Z" fill="#E8EBED"/>
  <path d="M16 41 L14 44 L18 42 Z" fill="#E8EBED"/>
  <path d="M12 43 L10 46 L14 43 Z" fill="#E8EBED"/>

  <!-- 眼睛 -->
  <ellipse cx="22" cy="32" rx="4.5" ry="5" fill="#2C3E50"/>
  <ellipse cx="21" cy="30" rx="2" ry="2.5" fill="#6B7B8E"/>
  <circle cx="20" cy="29" r="1.2" fill="#FFFFFF"/>

  <!-- 眉毛 -->
  <path d="M17 25 Q22 22 27 26" fill="none" stroke="#4A5A6D" stroke-width="1.2" stroke-linecap="round"/>

  <!-- 鼻孔 -->
  <ellipse cx="12" cy="34" rx="1.2" ry="0.8" fill="#4A5A6D"/>

  <!-- 前肢（小短手） -->
  <path d="M40 46 L34 40 L32 42 L36 48 Z" fill="#6B7B8E"/>
  <path d="M34 40 L30 36 L28 38 L32 42 Z" fill="#5A6A7D"/>
  <!-- 手指 -->
  <path d="M30 36 Q28 34 29 37" fill="none" stroke="#4A5A6D" stroke-width="0.8" stroke-linecap="round"/>
  <path d="M32 38 Q30 36 31 39" fill="none" stroke="#4A5A6D" stroke-width="0.8" stroke-linecap="round"/>

  <!-- 背部纹理 -->
  <path d="M38 36 Q42 30 46 36" fill="none" stroke="#6B7B8E" stroke-width="0.7"/>
  <path d="M44 40 Q48 34 52 40" fill="none" stroke="#6B7B8E" stroke-width="0.7"/>
  <path d="M50 44 Q54 38 58 44" fill="none" stroke="#6B7B8E" stroke-width="0.7"/>

  <!-- 背上小棘 -->
  <path d="M38 34 L40 30 L42 34" fill="#6E7F92" stroke="#5E6F82" stroke-width="0.5"/>
  <path d="M46 36 L48 32 L50 36" fill="#6E7F92" stroke="#5E6F82" stroke-width="0.5"/>
  <path d="M54 40 L56 36 L58 40" fill="#6E7F92" stroke="#5E6F82" stroke-width="0.5"/>
</svg>
